<svg width="24" height="24" viewBox="0 0 24 24" fill="none" xmlns="http://www.w3.org/2000/svg">
<path d="M23 2.375C23 7.25625 19.3648 11.291 14.6555 11.9141C14.3504 9.61953 13.3406 7.54844 11.8496 5.92852C13.4953 2.98945 16.6406 1 20.25 1H21.625C22.3855 1 23 1.61445 23 2.375ZM1 5.125C1 4.36445 1.61445 3.75 2.375 3.75H3.75C9.06523 3.75 13.375 8.05977 13.375 13.375V14.75V21.625C13.375 22.3855 12.7605 23 12 23C11.2395 23 10.625 22.3855 10.625 21.625V14.75C5.30977 14.75 1 10.4402 1 5.125Z" fill="#fff" />
</svg>
