<svg width="21" height="21" viewBox="0 0 21 21" fill="none" xmlns="http://www.w3.org/2000/svg">
<path d="M3.87335 13.9298C2.83953 14.9281 1.11529 14.1705 1.15134 12.7338L1.36347 4.27957C1.38318 3.49429 1.71291 2.74873 2.28063 2.20582C2.84109 1.66984 3.58882 1.37411 4.36428 1.38172L13.0449 1.46697C14.3999 1.48027 15.057 3.12987 14.0822 4.07115C13.8107 4.3334 13.4509 4.48479 13.0736 4.49563L8.6607 4.62244C6.43158 4.6865 4.63124 6.46291 4.53736 8.69097L4.36247 12.8417C4.34511 13.2537 4.16998 13.6433 3.87335 13.9298Z" fill="white"/>
<path d="M15.868 6.72342C16.9018 5.72507 18.6261 6.48262 18.59 7.91936L18.3779 16.3736C18.3582 17.1589 18.0284 17.9044 17.4607 18.4474C16.9003 18.9833 16.1525 19.2791 15.3771 19.2714L6.69643 19.1862C5.34148 19.1729 4.6844 17.5233 5.65912 16.582C5.93069 16.3198 6.29042 16.1684 6.66779 16.1575L11.0807 16.0307C13.3098 15.9667 15.1101 14.1903 15.204 11.9622L15.3789 7.81142C15.3962 7.39942 15.5714 7.00987 15.868 6.72342Z" fill="white"/>
</svg>
