<svg width="180" height="180" viewBox="0 0 180 180" fill="none" xmlns="http://www.w3.org/2000/svg">
<g clip-path="url(#clip0_2175_26)">
<path d="M61.1631 142.091C63.8202 146.806 66.2374 150.791 72.0488 150.791C77.606 150.791 81.1117 148.617 81.1117 140.163V82.6484H98.026V140.391C98.026 157.906 87.7574 165.877 72.7688 165.877C59.226 165.877 51.3831 158.868 47.3945 150.427L61.1631 142.091Z" fill="white"/>
<path d="M144.125 84C146.896 84 149.143 86.2466 149.143 89.0179V147.154L170.684 125.613C172.644 123.653 175.821 123.653 177.78 125.613C179.74 127.572 179.74 130.749 177.78 132.709L147.673 162.816C145.714 164.775 142.536 164.775 140.577 162.816L110.47 132.709C108.51 130.749 108.51 127.572 110.47 125.613C112.429 123.653 115.606 123.653 117.566 125.613L139.107 147.154V89.0179C139.107 86.2466 141.354 84 144.125 84Z" fill="white"/>
</g>
<defs>
<clipPath id="clip0_2175_26">
<rect width="180" height="180" fill="white"/>
</clipPath>
</defs>
</svg>
