<svg width="24" height="24" viewBox="0 0 24 24" fill="none" xmlns="http://www.w3.org/2000/svg">
<path d="M22.0827 18.4167C22.0827 18.9029 21.8895 19.3692 21.5457 19.713C21.2019 20.0568 20.7356 20.25 20.2494 20.25H3.74935C3.26312 20.25 2.7968 20.0568 2.45299 19.713C2.10917 19.3692 1.91602 18.9029 1.91602 18.4167V8.33333C1.91602 7.8471 2.10917 7.38079 2.45299 7.03697C2.7968 6.69315 3.26312 6.5 3.74935 6.5H7.41602L9.24935 3.75H14.7494L16.5827 6.5H20.2494C20.7356 6.5 21.2019 6.69315 21.5457 7.03697C21.8895 7.38079 22.0827 7.8471 22.0827 8.33333V18.4167Z" stroke="#fff" stroke-width="2" stroke-linecap="round" stroke-linejoin="round"/>
<path d="M12.0007 16.5833C14.0257 16.5833 15.6673 14.9417 15.6673 12.9167C15.6673 10.8916 14.0257 9.25 12.0007 9.25C9.97561 9.25 8.33398 10.8916 8.33398 12.9167C8.33398 14.9417 9.97561 16.5833 12.0007 16.5833Z" stroke="#fff" stroke-width="2" stroke-linecap="round" stroke-linejoin="round"/>
</svg>
