<svg width="21" height="21" viewBox="0 0 21 21" fill="none" xmlns="http://www.w3.org/2000/svg">
<path d="M9.65998 3.77295H3.77362C3.32757 3.77295 2.89979 3.95014 2.58439 4.26554C2.26899 4.58094 2.0918 5.00872 2.0918 5.45477V17.2275C2.0918 17.6735 2.26899 18.1013 2.58439 18.4167C2.89979 18.7321 3.32757 18.9093 3.77362 18.9093H15.5463C15.9924 18.9093 16.4202 18.7321 16.7356 18.4167C17.051 18.1013 17.2282 17.6735 17.2282 17.2275V11.3411" stroke="white" stroke-width="1.68182" stroke-linecap="round" stroke-linejoin="round"/>
<path d="M15.9663 2.51124C16.3008 2.17671 16.7545 1.98877 17.2276 1.98877C17.7007 1.98877 18.1545 2.17671 18.489 2.51124C18.8235 2.84578 19.0115 3.2995 19.0115 3.77261C19.0115 4.24571 18.8235 4.69944 18.489 5.03397L10.5004 13.0226L7.13672 13.8635L7.97763 10.4999L15.9663 2.51124Z" stroke="white" stroke-width="1.68182" stroke-linecap="round" stroke-linejoin="round"/>
</svg>
