<?xml version="1.0" standalone="no"?>
<!DOCTYPE svg PUBLIC "-//W3C//DTD SVG 20010904//EN"
 "http://www.w3.org/TR/2001/REC-SVG-20010904/DTD/svg10.dtd">
<svg version="1.0" xmlns="http://www.w3.org/2000/svg"
 width="700.000000pt" height="700.000000pt" viewBox="0 0 700.000000 700.000000"
 preserveAspectRatio="xMidYMid meet">
<metadata>
Created by potrace 1.14, written by Peter Selinger 2001-2017
</metadata>
<g transform="translate(0.000000,700.000000) scale(0.100000,-0.100000)"
fill="#000000" stroke="none">
<path d="M924 6984 c-343 -57 -630 -262 -792 -564 -48 -88 -73 -154 -104 -270
l-23 -85 -3 -2460 c-3 -2687 -6 -2547 54 -2736 51 -163 137 -302 264 -429 183
-184 407 -292 662 -319 135 -15 4791 -15 4926 0 514 55 915 457 971 971 15
134 15 4790 0 4926 -27 256 -135 481 -318 662 -172 170 -385 276 -625 309 -54
8 -826 11 -2504 10 -1992 -1 -2441 -3 -2508 -15z m2461 -1723 l550 -6 53 -24
c100 -45 163 -146 161 -260 -1 -109 -54 -193 -151 -240 l-63 -31 -345 -10
c-652 -18 -677 -21 -816 -85 -237 -108 -400 -312 -448 -560 -10 -51 -21 -218
-31 -465 -8 -212 -17 -407 -20 -435 -12 -111 -96 -217 -197 -251 -148 -49
-325 33 -372 174 -21 59 -20 178 3 1057 18 641 20 695 40 755 59 187 211 331
394 376 59 14 366 15 1242 5z m1342 -919 c87 -45 136 -105 162 -197 13 -48
-22 -1598 -39 -1710 -30 -196 -179 -369 -372 -430 l-79 -25 -432 1 c-238 1
-634 4 -882 8 -437 6 -451 7 -491 28 -65 35 -101 70 -129 127 -58 118 -40 232
49 322 81 80 83 80 631 98 525 16 538 18 690 91 207 100 357 285 415 511 17
65 24 156 40 526 21 476 21 480 76 560 29 42 86 84 141 104 54 20 167 13 220
-14z"/>
</g>
</svg>
